<svg id="apple" xmlns="http://www.w3.org/2000/svg" width="28" height="34" viewBox="0 0 28 34">
  <defs>
    <style>
      .cls-1 {
        fill: #fff;
        fill-rule: evenodd;
      }
    </style>
  </defs>
  <path id="Path" class="cls-1" d="M935,3156.31a23.265,23.265,0,0,1-2.117,3.95c-1.374,2.1-3.312,4.71-5.714,4.73-2.133.02-2.682-1.39-5.578-1.37s-3.5,1.4-5.633,1.38c-2.4-.02-4.236-2.38-5.611-4.48-3.844-5.86-4.246-12.74-1.875-16.4a8.5,8.5,0,0,1,6.842-4.12c2.545,0,4.145,1.4,6.249,1.4,2.042,0,3.285-1.4,6.227-1.4a8.3,8.3,0,0,1,6.261,3.31,7.184,7.184,0,0,0,.949,13h0Z" transform="translate(-907 -3131)"/>
  <path id="Path-2" data-name="Path" class="cls-1" d="M926.292,3136.4a7.207,7.207,0,0,0,1.644-5.4,8.057,8.057,0,0,0-5.167,2.73,6.694,6.694,0,0,0-1.69,5.27,6.8,6.8,0,0,0,5.213-2.6h0Z" transform="translate(-907 -3131)"/>
</svg>
