<svg id="chart-growth" xmlns="http://www.w3.org/2000/svg" width="16" height="20" viewBox="0 0 16 20">
  <defs>
    <style>
      .cls-1, .cls-2 {
        fill: #0f53fa;
      }

      .cls-2 {
        fill-rule: evenodd;
      }
    </style>
  </defs>
  <rect id="Path" class="cls-1" y="11" width="4" height="9" rx="0.4" ry="0.4"/>
  <path id="Path-2" data-name="Path" class="cls-2" d="M282.9,2406.68l-5.539-6.53a0.508,0.508,0,0,0-.721,0l-5.538,6.53a0.416,0.416,0,0,0-.056.46,0.47,0.47,0,0,0,.417.25h3.23v12.17a0.453,0.453,0,0,0,.462.44h3.692a0.453,0.453,0,0,0,.462-0.44v-12.17h3.23a0.469,0.469,0,0,0,.416-0.25A0.416,0.416,0,0,0,282.9,2406.68Z" transform="translate(-267 -2400)"/>
</svg>
