<svg id="cloud-refresh" xmlns="http://www.w3.org/2000/svg" width="26" height="18" viewBox="0 0 26 18">
  <defs>
    <style>
      .cls-1 {
        fill: #0f53fa;
        fill-rule: evenodd;
      }
    </style>
  </defs>
  <path id="Shape" class="cls-1" d="M1440.4,1438.9a9.037,9.037,0,0,0-17.96.26,5.052,5.052,0,0,0,1.65,9.84h15.82A5.061,5.061,0,0,0,1440.4,1438.9Zm-3.47,3.49a5.089,5.089,0,0,1-8.45,2.38l-1.57,1.42,0.18-3.76,3.78,0.18-1.55,1.4a3.956,3.956,0,0,0,6.51-1.9A0.568,0.568,0,1,1,1436.93,1442.39Zm-0.02-2.57-3.78-.18,1.55-1.41a3.965,3.965,0,0,0-6.51,1.91,0.576,0.576,0,0,1-.55.42,0.34,0.34,0,0,1-.14-0.02,0.564,0.564,0,0,1-.41-0.68,5.089,5.089,0,0,1,8.45-2.38l1.57-1.42Z" transform="translate(-1419 -1431)"/>
</svg>
