<svg id="connect" xmlns="http://www.w3.org/2000/svg" width="24" height="20" viewBox="0 0 24 20">
  <defs>
    <style>
      .cls-1 {
        fill: #0f53fa;
        fill-rule: evenodd;
      }
    </style>
  </defs>
  <path id="Path" class="cls-1" d="M276.461,2340.5h-4.883a4.215,4.215,0,0,0-4.271-3.5,4.011,4.011,0,1,0,0,8,4.215,4.215,0,0,0,4.271-3.5h4.883A0.5,0.5,0,1,0,276.461,2340.5Z" transform="translate(-263 -2325)"/>
  <path id="Path-2" data-name="Path" class="cls-1" d="M282.791,2336.99a4.315,4.315,0,0,0-1.765.37l-2.054-3.13a0.541,0.541,0,0,0-.725-0.15,0.485,0.485,0,0,0-.167.69l2.053,3.12a3.931,3.931,0,0,0-1.552,3.1A4.215,4.215,0,1,0,282.791,2336.99Z" transform="translate(-263 -2325)"/>
  <path id="Path-3" data-name="Path" class="cls-1" d="M274.765,2325a4.144,4.144,0,0,0-4.236,4.04,3.948,3.948,0,0,0,1.561,3.12l-2.01,3.07a0.512,0.512,0,0,0,.448.77,0.523,0.523,0,0,0,.45-0.24l2.011-3.06a4.363,4.363,0,0,0,1.776.37A4.04,4.04,0,1,0,274.765,2325Z" transform="translate(-263 -2325)"/>
</svg>
