<svg id="connect" xmlns="http://www.w3.org/2000/svg" width="24" height="20"><defs><style>.cls-1{fill:#0f53fa;fill-rule:evenodd}</style></defs><path id="Path" class="cls-1" d="M276.461 2340.5h-4.883a4.215 4.215 0 00-4.271-3.5 4.011 4.011 0 100 8 4.215 4.215 0 004.271-3.5h4.883a.5.5 0 100-1z" transform="translate(-263 -2325)"/><path id="Path-2" data-name="Path" class="cls-1" d="M282.791 2336.99a4.315 4.315 0 00-1.765.37l-2.054-3.13a.541.541 0 00-.725-.15.485.485 0 00-.167.69l2.053 3.12a3.931 3.931 0 00-1.552 3.1 4.215 4.215 0 104.21-4z" transform="translate(-263 -2325)"/><path id="Path-3" data-name="Path" class="cls-1" d="M274.765 2325a4.144 4.144 0 00-4.236 4.04 3.948 3.948 0 001.561 3.12l-2.01 3.07a.512.512 0 00.448.77.523.523 0 00.45-.24l2.011-3.06a4.363 4.363 0 001.776.37 4.04 4.04 0 100-8.07z" transform="translate(-263 -2325)"/></svg>