<svg width="32" height="32" xmlns="http://www.w3.org/2000/svg">

 <g>
  <title>background</title>
  <rect fill="none" id="canvas_background" height="402" width="582" y="-1" x="-1"/>
 </g>
 <g>
  <title>Layer 1</title>
  <path fill="#22b0fc" id="XMLID_352_" d="m29.04896,16c0,1.104 -0.896,2 -2,2l-16,0c-1.104,0 -2,-0.896 -2,-2s0.896,-2 2,-2l16,0c1.104,0 2,0.896 2,2z"/>
  <path fill="#22b0fc" id="XMLID_354_" d="m29.04896,6c0,1.104 -0.896,2 -2,2l-16,0c-1.104,0 -2,-0.896 -2,-2s0.896,-2 2,-2l16,0c1.104,0 2,0.896 2,2z"/>
  <path fill="#22b0fc" id="XMLID_356_" d="m29.04896,26c0,1.104 -0.896,2 -2,2l-16,0c-1.104,0 -2,-0.896 -2,-2s0.896,-2 2,-2l16,0c1.104,0 2,0.896 2,2z"/>
  <path fill="#22b0fc" id="XMLID_358_" d="m3.04896,6c0,1.103 0.897,2 2,2s2,-0.897 2,-2s-0.897,-2 -2,-2s-2,0.897 -2,2z"/>
  <path fill="#22b0fc" id="XMLID_360_" d="m3.04896,16c0,1.103 0.897,2 2,2s2,-0.897 2,-2s-0.897,-2 -2,-2s-2,0.897 -2,2z"/>
  <path fill="#22b0fc" id="XMLID_362_" d="m3.04896,26c0,1.103 0.897,2 2,2s2,-0.897 2,-2s-0.897,-2 -2,-2s-2,0.897 -2,2z"/>
 </g>
</svg>