<svg id="logo-twitter" xmlns="http://www.w3.org/2000/svg" width="16" height="13" viewBox="0 0 16 13">
  <defs>
    <style>
      .cls-1 {
        fill: #21c6dd;
        fill-rule: evenodd;
      }
    </style>
  </defs>
  <path id="Path" class="cls-1" d="M577,3857.51a7.17,7.17,0,0,1-1.9.53,3.191,3.191,0,0,0,1.433-1.81,7.233,7.233,0,0,1-2.1.81,3.273,3.273,0,0,0-5.666,2.24,2.638,2.638,0,0,0,.1.74,9.308,9.308,0,0,1-6.766-3.45,3.434,3.434,0,0,0-.434,1.64,3.285,3.285,0,0,0,1.467,2.75,4.042,4.042,0,0,1-1.5-.4v0.03a3.3,3.3,0,0,0,2.633,3.25,3.462,3.462,0,0,1-.866.1,3.408,3.408,0,0,1-.633-0.07,3.262,3.262,0,0,0,3.066,2.28,6.655,6.655,0,0,1-4.066,1.41,6.273,6.273,0,0,1-.767-0.03,9.338,9.338,0,0,0,14.367-7.91v-0.44A5.909,5.909,0,0,0,577,3857.51Z" transform="translate(-561 -3856)"/>
</svg>
