<svg id="node" xmlns="http://www.w3.org/2000/svg" width="20" height="20"><defs><style>.cls-1{fill:#0f53fa;fill-rule:evenodd}</style></defs><path id="Path" class="cls-1" d="M298.353 1442.63a3.585 3.585 0 00-2.443.96l-3.477-3.01V1438a4.622 4.622 0 01-.911 0v2.58l-3.477 3.01a3.6 3.6 0 00-4.956.1 3.694 3.694 0 00-.211 5.01 3.584 3.584 0 004.929.53 3.688 3.688 0 00.834-4.94l3.337-2.9 3.336 2.9a3.708 3.708 0 00.355 4.51 3.61 3.61 0 004.416.76 3.7 3.7 0 001.8-4.15 3.647 3.647 0 00-3.532-2.78z" transform="translate(-282 -1430)"/><path id="Shape" class="cls-1" d="M292.5 1437a3.5 3.5 0 113.5-3.5 3.5 3.5 0 01-3.5 3.5zm0-6.13a2.625 2.625 0 102.625 2.63 2.629 2.629 0 00-2.625-2.63z" transform="translate(-282 -1430)"/></svg>