<svg id="node" xmlns="http://www.w3.org/2000/svg" width="20" height="20" viewBox="0 0 20 20">
  <defs>
    <style>
      .cls-1 {
        fill: #0f53fa;
        fill-rule: evenodd;
      }
    </style>
  </defs>
  <path id="Path" class="cls-1" d="M298.353,1442.63a3.585,3.585,0,0,0-2.443.96l-3.477-3.01V1438a4.622,4.622,0,0,1-.911,0v2.58l-3.477,3.01a3.6,3.6,0,0,0-4.956.1,3.694,3.694,0,0,0-.211,5.01,3.584,3.584,0,0,0,4.929.53,3.688,3.688,0,0,0,.834-4.94l3.337-2.9,3.336,2.9a3.708,3.708,0,0,0,.355,4.51,3.61,3.61,0,0,0,4.416.76,3.7,3.7,0,0,0,1.8-4.15A3.647,3.647,0,0,0,298.353,1442.63Z" transform="translate(-282 -1430)"/>
  <path id="Shape" class="cls-1" d="M292.5,1437a3.5,3.5,0,1,1,3.5-3.5,3.5,3.5,0,0,1-3.5,3.5h0Zm0-6.13a2.625,2.625,0,1,0,2.625,2.63A2.629,2.629,0,0,0,292.5,1430.87Z" transform="translate(-282 -1430)"/>
</svg>
