<svg xmlns="http://www.w3.org/2000/svg" width="16" height="13"><path d="M16 1.51a7.17 7.17 0 01-1.9.53A3.191 3.191 0 0015.533.23a7.233 7.233 0 01-2.1.81 3.273 3.273 0 00-5.666 2.24 2.638 2.638 0 00.1.74A9.308 9.308 0 011.101.57a3.434 3.434 0 00-.434 1.64 3.285 3.285 0 001.467 2.75 4.042 4.042 0 01-1.5-.4v.03a3.3 3.3 0 002.633 3.25 3.462 3.462 0 01-.866.1 3.408 3.408 0 01-.633-.07 3.262 3.262 0 003.066 2.28 6.655 6.655 0 01-4.066 1.41 6.273 6.273 0 01-.767-.03 9.338 9.338 0 0014.367-7.91v-.44A5.909 5.909 0 0016 1.51z" fill="#21c6dd" fill-rule="evenodd"/></svg>